<mxfile host="app.diagrams.net" agent="Mozilla/5.0 (Windows NT 10.0; Win64; x64) AppleWebKit/537.36 (KHTML, like Gecko) Chrome/133.0.0.0 Safari/537.36" version="26.0.16">
  <diagram name="Page-1" id="bjJSrv5zMaCwU1wNmdre">
    <mxGraphModel dx="339" dy="902" grid="1" gridSize="10" guides="1" tooltips="1" connect="1" arrows="1" fold="1" page="1" pageScale="1" pageWidth="850" pageHeight="1100" math="0" shadow="0">
      <root>
        <mxCell id="0" />
        <mxCell id="1" parent="0" />
        <mxCell id="DshOfDi3M8hb1an4ScI6-8" value="" style="rounded=0;whiteSpace=wrap;html=1;" vertex="1" parent="1">
          <mxGeometry x="125" y="230" width="315" height="430" as="geometry" />
        </mxCell>
        <mxCell id="DshOfDi3M8hb1an4ScI6-1" value="CTP:8085&lt;div&gt;em.war&lt;/div&gt;" style="rounded=1;whiteSpace=wrap;html=1;" vertex="1" parent="1">
          <mxGeometry x="140" y="390" width="120" height="60" as="geometry" />
        </mxCell>
        <mxCell id="DshOfDi3M8hb1an4ScI6-2" value="LSS:8080" style="rounded=1;whiteSpace=wrap;html=1;" vertex="1" parent="1">
          <mxGeometry x="140" y="290" width="120" height="60" as="geometry" />
        </mxCell>
        <mxCell id="DshOfDi3M8hb1an4ScI6-3" value="Virt desktop&amp;nbsp;" style="rounded=1;whiteSpace=wrap;html=1;labelPosition=center;verticalLabelPosition=top;align=center;verticalAlign=bottom;" vertex="1" parent="1">
          <mxGeometry x="290" y="290" width="120" height="90" as="geometry" />
        </mxCell>
        <mxCell id="DshOfDi3M8hb1an4ScI6-4" value="Virt Desktop 2" style="rounded=1;whiteSpace=wrap;html=1;textShadow=1;labelPosition=center;verticalLabelPosition=top;align=center;verticalAlign=bottom;" vertex="1" parent="1">
          <mxGeometry x="590" y="240" width="120" height="90" as="geometry" />
        </mxCell>
        <mxCell id="DshOfDi3M8hb1an4ScI6-5" value="9080" style="shape=cylinder3;whiteSpace=wrap;html=1;boundedLbl=1;backgroundOutline=1;size=15;" vertex="1" parent="1">
          <mxGeometry x="300" y="320" width="37.5" height="50" as="geometry" />
        </mxCell>
        <mxCell id="DshOfDi3M8hb1an4ScI6-6" value="" style="shape=cylinder3;whiteSpace=wrap;html=1;boundedLbl=1;backgroundOutline=1;size=15;" vertex="1" parent="1">
          <mxGeometry x="720" y="270" width="37.5" height="50" as="geometry" />
        </mxCell>
        <mxCell id="DshOfDi3M8hb1an4ScI6-7" value="SOAVirt Server&lt;div&gt;soavirt.war&lt;/div&gt;" style="shape=cylinder3;whiteSpace=wrap;html=1;boundedLbl=1;backgroundOutline=1;size=15;" vertex="1" parent="1">
          <mxGeometry x="155" y="500" width="90" height="100" as="geometry" />
        </mxCell>
        <mxCell id="DshOfDi3M8hb1an4ScI6-9" value="DR" style="shape=cylinder3;whiteSpace=wrap;html=1;boundedLbl=1;backgroundOutline=1;size=15;" vertex="1" parent="1">
          <mxGeometry x="360" y="320" width="37.5" height="50" as="geometry" />
        </mxCell>
        <mxCell id="DshOfDi3M8hb1an4ScI6-10" value="DR:2424" style="shape=cylinder3;whiteSpace=wrap;html=1;boundedLbl=1;backgroundOutline=1;size=15;" vertex="1" parent="1">
          <mxGeometry x="290" y="398" width="60" height="80" as="geometry" />
        </mxCell>
        <mxCell id="DshOfDi3M8hb1an4ScI6-11" value="http/8080&lt;div&gt;https/8443&lt;/div&gt;&lt;div&gt;http/9080&lt;/div&gt;&lt;div&gt;https/9443&lt;/div&gt;&lt;div&gt;tcp/2424&lt;/div&gt;" style="text;html=1;align=center;verticalAlign=middle;resizable=0;points=[];autosize=1;strokeColor=none;fillColor=none;" vertex="1" parent="1">
          <mxGeometry x="360" y="570" width="80" height="90" as="geometry" />
        </mxCell>
        <mxCell id="DshOfDi3M8hb1an4ScI6-12" value="Machine 1" style="text;html=1;align=center;verticalAlign=middle;whiteSpace=wrap;rounded=0;" vertex="1" parent="1">
          <mxGeometry x="245" y="200" width="60" height="30" as="geometry" />
        </mxCell>
      </root>
    </mxGraphModel>
  </diagram>
</mxfile>
